# xmcd
#
# Track frame offsets: 
#        150
#        17700
#        44475
#
# Disc length: 932 seconds
#
# Revision: 0
# Processed by: cddbd v1.5.2PL0 Copyright (c) Steve Scherf et al.
# Submitted via: ExactAudioCopy v1.0b3
#
DISCID=1e03a203
DTITLE=Angela Martin - Reach Out
DYEAR=1900
DGENRE=
TTITLE0=Reach Out (Radio Edit)
TTITLE1=Reach Out (Extended Version)
TTITLE2=Reach Out (Alternative Mix)
EXTD=
EXTT0=
EXTT1=
EXTT2=
PLAYORDER=
